<mxfile host="app.diagrams.net" agent="Mozilla/5.0 (Macintosh; Intel Mac OS X 10_15_7) AppleWebKit/537.36 (KHTML, like Gecko) Chrome/137.0.0.0 Safari/537.36 Edg/137.0.0.0" version="28.1.1">
  <diagram name="第 1 页" id="fNpXfTxp3iiJ8JECPpuU">
    <mxGraphModel dx="994" dy="561" grid="1" gridSize="10" guides="1" tooltips="1" connect="1" arrows="1" fold="1" page="1" pageScale="1" pageWidth="1169" pageHeight="827" math="0" shadow="0">
      <root>
        <mxCell id="0" />
        <mxCell id="1" parent="0" />
        <mxCell id="rgwdZMs3s9Pk-fmFxupq-4" style="edgeStyle=orthogonalEdgeStyle;rounded=0;orthogonalLoop=1;jettySize=auto;html=1;exitX=1;exitY=0.5;exitDx=0;exitDy=0;entryX=0.25;entryY=0;entryDx=0;entryDy=0;" edge="1" parent="1" source="rgwdZMs3s9Pk-fmFxupq-1" target="rgwdZMs3s9Pk-fmFxupq-3">
          <mxGeometry relative="1" as="geometry" />
        </mxCell>
        <mxCell id="rgwdZMs3s9Pk-fmFxupq-5" value="Lock加锁" style="edgeLabel;html=1;align=center;verticalAlign=middle;resizable=0;points=[];" vertex="1" connectable="0" parent="rgwdZMs3s9Pk-fmFxupq-4">
          <mxGeometry x="-0.0895" y="2" relative="1" as="geometry">
            <mxPoint y="1" as="offset" />
          </mxGeometry>
        </mxCell>
        <mxCell id="rgwdZMs3s9Pk-fmFxupq-7" style="edgeStyle=orthogonalEdgeStyle;rounded=0;orthogonalLoop=1;jettySize=auto;html=1;exitX=0.5;exitY=0;exitDx=0;exitDy=0;entryX=0.5;entryY=1;entryDx=0;entryDy=0;" edge="1" parent="1" source="rgwdZMs3s9Pk-fmFxupq-1" target="rgwdZMs3s9Pk-fmFxupq-6">
          <mxGeometry relative="1" as="geometry" />
        </mxCell>
        <mxCell id="rgwdZMs3s9Pk-fmFxupq-12" style="edgeStyle=orthogonalEdgeStyle;rounded=0;orthogonalLoop=1;jettySize=auto;html=1;exitX=0.5;exitY=1;exitDx=0;exitDy=0;entryX=0;entryY=0.5;entryDx=0;entryDy=0;" edge="1" parent="1" source="rgwdZMs3s9Pk-fmFxupq-1" target="rgwdZMs3s9Pk-fmFxupq-3">
          <mxGeometry relative="1" as="geometry" />
        </mxCell>
        <mxCell id="rgwdZMs3s9Pk-fmFxupq-13" value="unLock释放锁" style="edgeLabel;html=1;align=center;verticalAlign=middle;resizable=0;points=[];" vertex="1" connectable="0" parent="rgwdZMs3s9Pk-fmFxupq-12">
          <mxGeometry x="-0.0737" y="2" relative="1" as="geometry">
            <mxPoint y="1" as="offset" />
          </mxGeometry>
        </mxCell>
        <mxCell id="rgwdZMs3s9Pk-fmFxupq-1" value="&lt;font style=&quot;font-size: 16px;&quot;&gt;线程1&lt;/font&gt;" style="rounded=1;whiteSpace=wrap;html=1;" vertex="1" parent="1">
          <mxGeometry x="240" y="270" width="120" height="60" as="geometry" />
        </mxCell>
        <mxCell id="rgwdZMs3s9Pk-fmFxupq-16" style="edgeStyle=orthogonalEdgeStyle;rounded=0;orthogonalLoop=1;jettySize=auto;html=1;exitX=1;exitY=0.5;exitDx=0;exitDy=0;entryX=0;entryY=0.5;entryDx=0;entryDy=0;" edge="1" parent="1" source="rgwdZMs3s9Pk-fmFxupq-2" target="rgwdZMs3s9Pk-fmFxupq-15">
          <mxGeometry relative="1" as="geometry" />
        </mxCell>
        <mxCell id="rgwdZMs3s9Pk-fmFxupq-2" value="&lt;font style=&quot;font-size: 16px;&quot;&gt;线程2&lt;/font&gt;" style="rounded=1;whiteSpace=wrap;html=1;" vertex="1" parent="1">
          <mxGeometry x="240" y="390" width="120" height="60" as="geometry" />
        </mxCell>
        <mxCell id="rgwdZMs3s9Pk-fmFxupq-3" value="&lt;font style=&quot;font-size: 16px;&quot;&gt;Redis&lt;/font&gt;" style="rounded=1;whiteSpace=wrap;html=1;" vertex="1" parent="1">
          <mxGeometry x="650" y="330" width="120" height="60" as="geometry" />
        </mxCell>
        <mxCell id="rgwdZMs3s9Pk-fmFxupq-9" style="edgeStyle=orthogonalEdgeStyle;rounded=0;orthogonalLoop=1;jettySize=auto;html=1;exitX=1;exitY=0.5;exitDx=0;exitDy=0;" edge="1" parent="1" source="rgwdZMs3s9Pk-fmFxupq-6" target="rgwdZMs3s9Pk-fmFxupq-8">
          <mxGeometry relative="1" as="geometry" />
        </mxCell>
        <mxCell id="rgwdZMs3s9Pk-fmFxupq-6" value="加锁成功" style="rhombus;whiteSpace=wrap;html=1;" vertex="1" parent="1">
          <mxGeometry x="260" y="130" width="80" height="80" as="geometry" />
        </mxCell>
        <mxCell id="rgwdZMs3s9Pk-fmFxupq-10" style="edgeStyle=orthogonalEdgeStyle;rounded=0;orthogonalLoop=1;jettySize=auto;html=1;exitX=1;exitY=0.5;exitDx=0;exitDy=0;entryX=0.75;entryY=0;entryDx=0;entryDy=0;" edge="1" parent="1" source="rgwdZMs3s9Pk-fmFxupq-8" target="rgwdZMs3s9Pk-fmFxupq-3">
          <mxGeometry relative="1" as="geometry" />
        </mxCell>
        <mxCell id="rgwdZMs3s9Pk-fmFxupq-11" value="每间隔 （加锁时长 / 3）的时间，&lt;div&gt;检查一次，如果线程1还持有锁，&lt;/div&gt;&lt;div&gt;则后台线程就去进行一个锁延期操作&lt;/div&gt;" style="edgeLabel;html=1;align=center;verticalAlign=middle;resizable=0;points=[];" vertex="1" connectable="0" parent="rgwdZMs3s9Pk-fmFxupq-10">
          <mxGeometry x="0.2476" relative="1" as="geometry">
            <mxPoint y="1" as="offset" />
          </mxGeometry>
        </mxCell>
        <mxCell id="rgwdZMs3s9Pk-fmFxupq-8" value="后台线程" style="rounded=1;whiteSpace=wrap;html=1;" vertex="1" parent="1">
          <mxGeometry x="465" y="140" width="120" height="60" as="geometry" />
        </mxCell>
        <mxCell id="rgwdZMs3s9Pk-fmFxupq-17" style="edgeStyle=orthogonalEdgeStyle;rounded=0;orthogonalLoop=1;jettySize=auto;html=1;exitX=1;exitY=0.5;exitDx=0;exitDy=0;entryX=0.5;entryY=1;entryDx=0;entryDy=0;" edge="1" parent="1" source="rgwdZMs3s9Pk-fmFxupq-15" target="rgwdZMs3s9Pk-fmFxupq-3">
          <mxGeometry relative="1" as="geometry" />
        </mxCell>
        <mxCell id="rgwdZMs3s9Pk-fmFxupq-18" value="加锁成功" style="edgeLabel;html=1;align=center;verticalAlign=middle;resizable=0;points=[];" vertex="1" connectable="0" parent="rgwdZMs3s9Pk-fmFxupq-17">
          <mxGeometry x="-0.2229" y="1" relative="1" as="geometry">
            <mxPoint y="1" as="offset" />
          </mxGeometry>
        </mxCell>
        <mxCell id="rgwdZMs3s9Pk-fmFxupq-19" style="edgeStyle=orthogonalEdgeStyle;rounded=0;orthogonalLoop=1;jettySize=auto;html=1;exitX=0.5;exitY=1;exitDx=0;exitDy=0;entryX=0.5;entryY=1;entryDx=0;entryDy=0;" edge="1" parent="1" source="rgwdZMs3s9Pk-fmFxupq-15" target="rgwdZMs3s9Pk-fmFxupq-2">
          <mxGeometry relative="1" as="geometry" />
        </mxCell>
        <mxCell id="rgwdZMs3s9Pk-fmFxupq-20" value="加锁失败&lt;div&gt;失败后线程会阻塞等待&lt;/div&gt;&lt;div&gt;（不会占用cpu资源）&lt;/div&gt;&lt;div&gt;间歇性的去尝试加锁&lt;/div&gt;" style="edgeLabel;html=1;align=center;verticalAlign=middle;resizable=0;points=[];" vertex="1" connectable="0" parent="rgwdZMs3s9Pk-fmFxupq-19">
          <mxGeometry x="0.0545" y="3" relative="1" as="geometry">
            <mxPoint as="offset" />
          </mxGeometry>
        </mxCell>
        <mxCell id="rgwdZMs3s9Pk-fmFxupq-15" value="判断是否&lt;div&gt;加锁&lt;span style=&quot;background-color: transparent; color: light-dark(rgb(0, 0, 0), rgb(255, 255, 255));&quot;&gt;成功&lt;/span&gt;&lt;/div&gt;" style="rhombus;whiteSpace=wrap;html=1;" vertex="1" parent="1">
          <mxGeometry x="485" y="380" width="80" height="80" as="geometry" />
        </mxCell>
        <mxCell id="rgwdZMs3s9Pk-fmFxupq-21" value="间歇性尝试：&lt;div&gt;会获取锁的ttl还剩余多少时间，就等待多少时间，是非公平锁。&lt;/div&gt;" style="shape=note;whiteSpace=wrap;html=1;backgroundOutline=1;darkOpacity=0.05;" vertex="1" parent="1">
          <mxGeometry x="340" y="510" width="130" height="100" as="geometry" />
        </mxCell>
      </root>
    </mxGraphModel>
  </diagram>
</mxfile>
